# Wavefront OBJ exported by MilkShape 3D

mtllib Wall.mtl

v -0.100000 1.000000 1.000000
v -0.100000 1.000000 0.000000
v 0.100000 1.000000 1.000000
v 0.100000 1.000000 -0.000000
v -0.100000 0.000000 0.000000
v -0.100000 0.000000 1.000000
v -0.100000 1.000000 1.000000
v -0.100000 1.000000 0.000000
v 0.100000 0.000000 -0.000000
v 0.100000 0.000000 1.000000
v 0.100000 1.000000 1.000000
v 0.100000 1.000000 -0.000000
# 12 vertices

vt 0.000000 0.000000
vt 1.000000 0.000000
vt 1.000000 1.000000
vt 0.000000 1.000000
vt 0.968720 0.213410
# 5 texture coordinates

vn 0.000000 1.000000 0.000000
vn -1.000000 0.000000 0.000000
vn 1.000000 0.000000 -0.000000
# 3 normals

g Top
usemtl Material01
s 1
f 1/1/1 3/2/1 4/3/1
f 4/3/1 2/4/1 1/1/1
# 2 triangles in group

g Walls
usemtl Material01
f 5/5/2 6/5/2 7/5/2
f 7/5/2 8/5/2 5/5/2
f 11/5/3 10/5/3 9/5/3
f 9/5/3 12/5/3 11/5/3
# 4 triangles in group

# 6 triangles total

