# Wavefront OBJ exported by MilkShape 3D

mtllib WallCap.mtl

v -0.121000 1.100000 0.121000
v -0.121000 1.100000 -0.121000
v 0.121000 1.100000 0.121000
v 0.121000 1.100000 -0.121000
v -0.121000 1.100000 0.121000
v -0.121000 1.100000 -0.121000
v 0.121000 1.100000 0.121000
v 0.121000 1.100000 -0.121000
v -0.121000 0.000000 -0.121000
v -0.121000 0.000000 0.121000
v -0.121000 1.100000 0.121000
v -0.121000 1.100000 -0.121000
v 0.121000 0.000000 -0.121000
v 0.121000 0.000000 0.121000
v 0.121000 1.100000 0.121000
v 0.121000 1.100000 -0.121000
# 16 vertices

vt 0.000000 0.000000
vt 1.000000 0.000000
vt 1.000000 1.000000
vt 0.000000 1.000000
vt 0.981220 0.225910
vt 0.012500 1.012500
# 6 texture coordinates

vn 0.000000 1.000000 0.000000
vn -0.894428 0.000000 -0.447213
vn -0.447213 0.000000 0.894427
vn -1.000000 0.000000 0.000001
vn 1.000000 0.000000 -0.000001
vn 0.707107 0.000000 0.707106
vn 0.707106 0.000000 -0.707107
vn 0.000000 0.000000 1.000000
vn -0.000000 0.000000 -1.000000
# 9 normals

g Top
usemtl Material01
s 1
f 1/1/1 3/2/1 4/3/1
f 4/3/1 2/4/1 1/1/1
# 2 triangles in group

g Walls
usemtl Material01
f 9/5/2 10/5/3 11/5/4
f 11/5/4 12/5/4 9/5/2
f 15/5/5 14/5/6 13/5/7
f 13/5/7 16/5/5 15/5/5
f 10/6/3 14/6/6 7/6/8
f 7/6/8 5/6/8 10/6/3
f 13/6/7 9/6/2 6/6/9
f 6/6/9 8/6/9 13/6/7
# 8 triangles in group

# 10 triangles total

